<svg xmlns="http://www.w3.org/2000/svg" xmlns:xlink="http://www.w3.org/1999/xlink" width="500" zoomAndPan="magnify" viewBox="0 0 375 374.999991" height="500" preserveAspectRatio="xMidYMid meet" version="1.0"><defs><filter x="0%" y="0%" width="100%" height="100%" id="1cb42b2e58"><feColorMatrix values="0 0 0 0 1 0 0 0 0 1 0 0 0 0 1 0 0 0 1 0" color-interpolation-filters="sRGB"/></filter><g/><clipPath id="59bedfad80"><path d="M 13 134.546875 L 117 134.546875 L 117 236 L 13 236 Z M 13 134.546875 " clip-rule="nonzero"/></clipPath><clipPath id="13d80e5ede"><path d="M 42.203125 167.96875 L 86.734375 167.96875 L 86.734375 207.03125 L 42.203125 207.03125 Z M 42.203125 167.96875 " clip-rule="nonzero"/></clipPath><clipPath id="d5bad9d35c"><path d="M 42.203125 179.492188 C 42.203125 191.898438 64.46875 207.03125 64.46875 207.03125 C 64.46875 207.03125 86.636719 191.792969 86.734375 179.492188 C 86.734375 173.140625 81.5625 167.96875 75.210938 167.96875 C 70.328125 167.96875 66.125 171.09375 64.46875 175.386719 C 62.8125 171.09375 58.609375 167.96875 53.726562 167.96875 C 47.375 167.96875 42.203125 173.140625 42.203125 179.492188 " clip-rule="nonzero"/></clipPath><mask id="2e9f6ceaaa"><g filter="url(#1cb42b2e58)"><rect x="-37.5" width="450" fill="#000000" y="-37.499999" height="449.999989" fill-opacity="0.82"/></g></mask><clipPath id="f345870fe8"><path d="M 0.746094 0.941406 L 36.191406 0.941406 L 36.191406 32.03125 L 0.746094 32.03125 Z M 0.746094 0.941406 " clip-rule="nonzero"/></clipPath><clipPath id="2e77972d8a"><path d="M 0.746094 10.113281 C 0.746094 19.988281 18.46875 32.03125 18.46875 32.03125 C 18.46875 32.03125 36.113281 19.902344 36.191406 10.113281 C 36.191406 5.0625 32.070312 0.941406 27.015625 0.941406 C 23.132812 0.941406 19.785156 3.429688 18.46875 6.847656 C 17.148438 3.429688 13.804688 0.941406 9.917969 0.941406 C 4.867188 0.941406 0.746094 5.0625 0.746094 10.113281 " clip-rule="nonzero"/></clipPath><clipPath id="552d3e4fe0"><rect x="0" width="37" y="0" height="33"/></clipPath></defs><path fill="#168c46" d="M 31.519531 182.449219 C 31.519531 164.980469 45.6875 150.816406 63.160156 150.816406 C 71.152344 150.816406 78.445312 153.777344 84.015625 158.660156 C 77.957031 149.273438 67.40625 143.054688 55.398438 143.054688 C 36.609375 143.054688 21.371094 158.289062 21.371094 177.078125 C 21.371094 193.402344 32.871094 207.039062 48.214844 210.339844 C 38.277344 205.003906 31.519531 194.515625 31.519531 182.449219 " fill-opacity="1" fill-rule="nonzero"/><g clip-path="url(#59bedfad80)"><path fill="#ef7f1a" d="M 95.839844 134.785156 C 95.214844 134.550781 94.9375 135.199219 94.832031 136.078125 C 94.621094 137.789062 95.308594 139.484375 96.605469 140.621094 C 110.171875 152.503906 107.539062 181.625 98.671875 179.890625 C 92.851562 178.75 99.050781 161.449219 94.199219 160.859375 C 90.976562 160.46875 88.109375 168.488281 88.316406 179.0625 C 88.433594 185.113281 90.375 190.105469 92.082031 194.4375 C 94.554688 200.714844 92.285156 207.902344 86.597656 211.53125 C 68.496094 223.078125 44.191406 220.953125 28.378906 205.144531 C 20.027344 196.792969 15.496094 186.070312 14.78125 175.140625 C 11.289062 191.324219 15.847656 208.890625 28.457031 221.445312 C 44.347656 237.269531 69.726562 240.5625 89.148438 229.351562 C 107.585938 218.703125 115.300781 196.796875 116.398438 176.429688 C 117.792969 150.519531 102.921875 137.449219 95.839844 134.785156 Z M 93.300781 148.960938 C 100.347656 155.152344 103.011719 165.996094 102.699219 174.734375 C 103.804688 172.023438 104.40625 168.058594 104.265625 163.8125 C 104.085938 158.132812 102.734375 152.816406 100.472656 148.507812 C 97.546875 145.695312 94.667969 143.917969 92.511719 143.105469 C 91.871094 142.863281 91.597656 143.550781 91.496094 144.460938 C 91.304688 146.164062 92.011719 147.828125 93.300781 148.960938 " fill-opacity="1" fill-rule="nonzero"/></g><g clip-path="url(#13d80e5ede)"><g clip-path="url(#d5bad9d35c)"><path fill="#183172" d="M 42.203125 167.96875 L 86.734375 167.96875 L 86.734375 207.03125 L 42.203125 207.03125 Z M 42.203125 167.96875 " fill-opacity="1" fill-rule="nonzero"/></g></g><g mask="url(#2e9f6ceaaa)"><g transform="matrix(1, 0, 0, 1, 46, 175)"><g clip-path="url(#552d3e4fe0)"><g clip-path="url(#f345870fe8)"><g clip-path="url(#2e77972d8a)"><path fill="#1b9ce4" d="M 0.746094 0.941406 L 36.191406 0.941406 L 36.191406 32.03125 L 0.746094 32.03125 Z M 0.746094 0.941406 " fill-opacity="1" fill-rule="nonzero"/></g></g></g></g></g><g fill="#ef7f1a" fill-opacity="1"><g transform="translate(132.639912, 184.191024)"><g><path d="M 19.84375 -8.59375 C 19.84375 -5.769531 18.847656 -3.550781 16.859375 -1.9375 C 14.867188 -0.320312 12.4375 0.484375 9.5625 0.484375 C 5.90625 0.484375 2.769531 -0.289062 0.15625 -1.84375 L 2.046875 -6.28125 C 4.117188 -4.332031 6.453125 -3.359375 9.046875 -3.359375 C 10.398438 -3.359375 11.5625 -3.726562 12.53125 -4.46875 C 13.507812 -5.21875 14 -6.257812 14 -7.59375 C 14 -8.5625 13.675781 -9.414062 13.03125 -10.15625 C 12.394531 -10.90625 11.601562 -11.492188 10.65625 -11.921875 C 9.707031 -12.347656 8.671875 -12.847656 7.546875 -13.421875 C 6.429688 -13.992188 5.398438 -14.570312 4.453125 -15.15625 C 3.515625 -15.75 2.722656 -16.582031 2.078125 -17.65625 C 1.441406 -18.738281 1.125 -19.988281 1.125 -21.40625 C 1.125 -24.144531 2.078125 -26.222656 3.984375 -27.640625 C 5.890625 -29.054688 8.425781 -29.765625 11.59375 -29.765625 C 12.800781 -29.765625 14.191406 -29.519531 15.765625 -29.03125 C 17.335938 -28.550781 18.535156 -27.992188 19.359375 -27.359375 L 16.59375 -23.921875 C 15.101562 -25.253906 13.265625 -25.921875 11.078125 -25.921875 C 9.960938 -25.921875 8.992188 -25.625 8.171875 -25.03125 C 7.359375 -24.445312 6.953125 -23.625 6.953125 -22.5625 C 6.953125 -21.625 7.269531 -20.800781 7.90625 -20.09375 C 8.550781 -19.394531 9.347656 -18.832031 10.296875 -18.40625 C 11.242188 -17.976562 12.273438 -17.46875 13.390625 -16.875 C 14.515625 -16.289062 15.550781 -15.695312 16.5 -15.09375 C 17.445312 -14.5 18.238281 -13.640625 18.875 -12.515625 C 19.519531 -11.398438 19.84375 -10.09375 19.84375 -8.59375 Z M 19.84375 -8.59375 "/></g></g></g><g fill="#ef7f1a" fill-opacity="1"><g transform="translate(153.277865, 184.191024)"><g><path d="M 22.953125 -0.765625 C 22.773438 -0.710938 22.3125 -0.570312 21.5625 -0.34375 C 20.8125 -0.113281 20.1875 0.0507812 19.6875 0.15625 C 19.195312 0.257812 18.726562 0.3125 18.28125 0.3125 C 17.476562 0.3125 16.796875 0.0664062 16.234375 -0.421875 C 15.679688 -0.910156 15.320312 -1.554688 15.15625 -2.359375 C 13.257812 -0.410156 11.070312 0.5625 8.59375 0.5625 C 6.40625 0.5625 4.863281 -0.0390625 3.96875 -1.25 C 3.082031 -2.46875 2.640625 -4.195312 2.640625 -6.4375 L 2.640625 -17.71875 L 2.203125 -19.875 L 7.515625 -19.875 L 7.515625 -7.28125 C 7.515625 -4.613281 8.382812 -3.28125 10.125 -3.28125 C 11.289062 -3.28125 12.285156 -3.640625 13.109375 -4.359375 C 13.941406 -5.078125 14.359375 -6.007812 14.359375 -7.15625 L 14.359375 -17.71875 C 14.359375 -17.75 14.316406 -17.921875 14.234375 -18.234375 C 14.160156 -18.554688 14.082031 -18.894531 14 -19.25 C 13.914062 -19.613281 13.875 -19.820312 13.875 -19.875 L 19.234375 -19.875 L 19.234375 -5.28125 C 19.234375 -3.894531 19.566406 -3.203125 20.234375 -3.203125 C 20.285156 -3.203125 20.914062 -3.363281 22.125 -3.6875 Z M 22.953125 -0.765625 "/></g></g></g><g fill="#ef7f1a" fill-opacity="1"><g transform="translate(175.395665, 184.191024)"><g><path d="M 19.84375 -8.59375 C 19.84375 -5.769531 18.847656 -3.550781 16.859375 -1.9375 C 14.867188 -0.320312 12.4375 0.484375 9.5625 0.484375 C 5.90625 0.484375 2.769531 -0.289062 0.15625 -1.84375 L 2.046875 -6.28125 C 4.117188 -4.332031 6.453125 -3.359375 9.046875 -3.359375 C 10.398438 -3.359375 11.5625 -3.726562 12.53125 -4.46875 C 13.507812 -5.21875 14 -6.257812 14 -7.59375 C 14 -8.5625 13.675781 -9.414062 13.03125 -10.15625 C 12.394531 -10.90625 11.601562 -11.492188 10.65625 -11.921875 C 9.707031 -12.347656 8.671875 -12.847656 7.546875 -13.421875 C 6.429688 -13.992188 5.398438 -14.570312 4.453125 -15.15625 C 3.515625 -15.75 2.722656 -16.582031 2.078125 -17.65625 C 1.441406 -18.738281 1.125 -19.988281 1.125 -21.40625 C 1.125 -24.144531 2.078125 -26.222656 3.984375 -27.640625 C 5.890625 -29.054688 8.425781 -29.765625 11.59375 -29.765625 C 12.800781 -29.765625 14.191406 -29.519531 15.765625 -29.03125 C 17.335938 -28.550781 18.535156 -27.992188 19.359375 -27.359375 L 16.59375 -23.921875 C 15.101562 -25.253906 13.265625 -25.921875 11.078125 -25.921875 C 9.960938 -25.921875 8.992188 -25.625 8.171875 -25.03125 C 7.359375 -24.445312 6.953125 -23.625 6.953125 -22.5625 C 6.953125 -21.625 7.269531 -20.800781 7.90625 -20.09375 C 8.550781 -19.394531 9.347656 -18.832031 10.296875 -18.40625 C 11.242188 -17.976562 12.273438 -17.46875 13.390625 -16.875 C 14.515625 -16.289062 15.550781 -15.695312 16.5 -15.09375 C 17.445312 -14.5 18.238281 -13.640625 18.875 -12.515625 C 19.519531 -11.398438 19.84375 -10.09375 19.84375 -8.59375 Z M 19.84375 -8.59375 "/></g></g></g><g fill="#ef7f1a" fill-opacity="1"><g transform="translate(196.033619, 184.191024)"><g><path d="M 26.796875 -19.875 L 20.484375 0.15625 L 16.765625 0.15625 C 16.597656 -0.425781 16.179688 -1.765625 15.515625 -3.859375 C 14.847656 -5.953125 14.332031 -7.675781 13.96875 -9.03125 C 13.613281 -10.394531 13.316406 -11.769531 13.078125 -13.15625 C 12.890625 -12.09375 12.632812 -10.941406 12.3125 -9.703125 C 12 -8.460938 11.703125 -7.398438 11.421875 -6.515625 C 11.140625 -5.640625 10.765625 -4.488281 10.296875 -3.0625 C 9.828125 -1.632812 9.472656 -0.5625 9.234375 0.15625 L 5.4375 0.15625 L -0.484375 -19.875 L 4.5625 -19.875 L 7.234375 -10.875 C 7.421875 -10.257812 7.632812 -8.941406 7.875 -6.921875 C 7.90625 -7.128906 7.953125 -7.535156 8.015625 -8.140625 C 8.085938 -8.742188 8.160156 -9.25 8.234375 -9.65625 C 8.316406 -10.070312 8.425781 -10.476562 8.5625 -10.875 L 11.4375 -19.875 L 15.875 -19.875 L 18.5625 -10.875 C 18.664062 -10.476562 18.753906 -10.070312 18.828125 -9.65625 C 18.910156 -9.25 18.984375 -8.765625 19.046875 -8.203125 C 19.117188 -7.640625 19.171875 -7.222656 19.203125 -6.953125 C 19.441406 -8.929688 19.65625 -10.238281 19.84375 -10.875 L 22.6875 -19.875 Z M 26.796875 -19.875 "/></g></g></g><g fill="#ef7f1a" fill-opacity="1"><g transform="translate(222.351, 184.191024)"><g><path d="M 20.640625 -0.765625 C 20.398438 -0.710938 20.03125 -0.601562 19.53125 -0.4375 C 19.039062 -0.28125 18.632812 -0.15625 18.3125 -0.0625 C 18 0.03125 17.617188 0.113281 17.171875 0.1875 C 16.734375 0.269531 16.34375 0.3125 16 0.3125 C 15.195312 0.3125 14.515625 0.0664062 13.953125 -0.421875 C 13.398438 -0.910156 13.03125 -1.554688 12.84375 -2.359375 C 11.507812 -0.492188 9.507812 0.4375 6.84375 0.4375 C 5.21875 0.4375 3.867188 -0.015625 2.796875 -0.921875 C 1.734375 -1.828125 1.203125 -3.082031 1.203125 -4.6875 C 1.203125 -6.070312 1.535156 -7.242188 2.203125 -8.203125 C 2.867188 -9.160156 3.773438 -9.875 4.921875 -10.34375 C 6.066406 -10.8125 7.210938 -11.144531 8.359375 -11.34375 C 9.503906 -11.539062 10.734375 -11.640625 12.046875 -11.640625 L 12.046875 -14.234375 C 12.046875 -15.273438 11.816406 -16.003906 11.359375 -16.421875 C 10.910156 -16.835938 10.175781 -17.046875 9.15625 -17.046875 C 7.75 -17.046875 6.046875 -16.269531 4.046875 -14.71875 L 2.078125 -17.875 C 4.503906 -19.53125 7.195312 -20.359375 10.15625 -20.359375 C 12.289062 -20.359375 13.9375 -19.8125 15.09375 -18.71875 C 16.257812 -17.625 16.84375 -16.007812 16.84375 -13.875 L 16.84375 -5.203125 C 16.84375 -3.867188 17.160156 -3.203125 17.796875 -3.203125 C 18.015625 -3.203125 18.679688 -3.363281 19.796875 -3.6875 Z M 12.046875 -7.4375 L 12.046875 -8.359375 C 8.148438 -8.359375 6.203125 -7.289062 6.203125 -5.15625 C 6.203125 -4.570312 6.429688 -4.101562 6.890625 -3.75 C 7.359375 -3.40625 7.898438 -3.234375 8.515625 -3.234375 C 9.554688 -3.234375 10.40625 -3.664062 11.0625 -4.53125 C 11.71875 -5.40625 12.046875 -6.375 12.046875 -7.4375 Z M 12.046875 -7.4375 "/></g></g></g><g fill="#ef7f1a" fill-opacity="1"><g transform="translate(242.10904, 184.191024)"><g><path d="M 15.71875 -6.203125 C 15.71875 -4.148438 14.941406 -2.507812 13.390625 -1.28125 C 11.847656 -0.0507812 10.023438 0.5625 7.921875 0.5625 C 5.578125 0.5625 3.363281 -0.0078125 1.28125 -1.15625 L 3 -4.4375 C 4.8125 -3.375 6.316406 -2.84375 7.515625 -2.84375 C 8.367188 -2.84375 9.082031 -3.0625 9.65625 -3.5 C 10.226562 -3.9375 10.515625 -4.570312 10.515625 -5.40625 C 10.515625 -6.125 10.210938 -6.722656 9.609375 -7.203125 C 9.015625 -7.679688 8.289062 -8.066406 7.4375 -8.359375 C 6.582031 -8.648438 5.722656 -8.988281 4.859375 -9.375 C 3.992188 -9.757812 3.257812 -10.351562 2.65625 -11.15625 C 2.0625 -11.957031 1.765625 -12.957031 1.765625 -14.15625 C 1.765625 -16.15625 2.53125 -17.695312 4.0625 -18.78125 C 5.59375 -19.863281 7.382812 -20.40625 9.4375 -20.40625 C 11.707031 -20.40625 13.664062 -19.988281 15.3125 -19.15625 L 13.640625 -15.796875 C 12.460938 -16.703125 11.144531 -17.15625 9.6875 -17.15625 C 8.9375 -17.15625 8.289062 -16.972656 7.75 -16.609375 C 7.21875 -16.253906 6.953125 -15.734375 6.953125 -15.046875 C 6.953125 -14.378906 7.253906 -13.832031 7.859375 -13.40625 C 8.460938 -12.976562 9.195312 -12.609375 10.0625 -12.296875 C 10.925781 -11.992188 11.785156 -11.640625 12.640625 -11.234375 C 13.492188 -10.835938 14.21875 -10.21875 14.8125 -9.375 C 15.414062 -8.539062 15.71875 -7.484375 15.71875 -6.203125 Z M 15.71875 -6.203125 "/></g></g></g><g fill="#ef7f1a" fill-opacity="1"><g transform="translate(259.307334, 184.191024)"><g><path d="M 13.078125 -0.4375 C 11.296875 0.125 9.722656 0.40625 8.359375 0.40625 C 6.628906 0.40625 5.363281 0.00390625 4.5625 -0.796875 C 3.757812 -1.597656 3.359375 -2.878906 3.359375 -4.640625 L 3.359375 -16.71875 L 0.078125 -16.71875 L 0.078125 -19.359375 C 1.085938 -19.390625 1.992188 -19.75 2.796875 -20.4375 C 3.597656 -21.132812 4.195312 -21.921875 4.59375 -22.796875 C 5 -23.679688 5.320312 -24.644531 5.5625 -25.6875 L 9.046875 -25.6875 C 8.503906 -23.414062 8.234375 -21.476562 8.234375 -19.875 L 13.078125 -19.875 L 12.125 -16.71875 L 8.234375 -16.71875 L 8.234375 -5.71875 C 8.234375 -3.9375 8.796875 -3.046875 9.921875 -3.046875 C 10.535156 -3.046875 11.398438 -3.175781 12.515625 -3.4375 Z M 13.078125 -0.4375 "/></g></g></g><g fill="#ef7f1a" fill-opacity="1"><g transform="translate(272.386031, 184.191024)"><g><path d="M 19.234375 0 L 14.40625 0 L 14.40625 -12.953125 C 14.40625 -13.703125 14.363281 -14.3125 14.28125 -14.78125 C 14.195312 -15.25 13.953125 -15.675781 13.546875 -16.0625 C 13.148438 -16.445312 12.59375 -16.640625 11.875 -16.640625 C 11.289062 -16.640625 10.535156 -16.390625 9.609375 -15.890625 C 8.691406 -15.398438 8.007812 -14.914062 7.5625 -14.4375 L 7.5625 0 L 2.796875 0 L 2.796875 -28.59375 L 2.3125 -30.765625 L 7.5625 -30.765625 L 7.5625 -18 C 9.53125 -19.625 11.445312 -20.4375 13.3125 -20.4375 C 15.476562 -20.4375 17.003906 -19.835938 17.890625 -18.640625 C 18.785156 -17.441406 19.234375 -15.707031 19.234375 -13.4375 Z M 19.234375 0 "/></g></g></g><g fill="#ef7f1a" fill-opacity="1"><g transform="translate(294.26386, 184.191024)"><g><path d="M 20.640625 -0.765625 C 20.398438 -0.710938 20.03125 -0.601562 19.53125 -0.4375 C 19.039062 -0.28125 18.632812 -0.15625 18.3125 -0.0625 C 18 0.03125 17.617188 0.113281 17.171875 0.1875 C 16.734375 0.269531 16.34375 0.3125 16 0.3125 C 15.195312 0.3125 14.515625 0.0664062 13.953125 -0.421875 C 13.398438 -0.910156 13.03125 -1.554688 12.84375 -2.359375 C 11.507812 -0.492188 9.507812 0.4375 6.84375 0.4375 C 5.21875 0.4375 3.867188 -0.015625 2.796875 -0.921875 C 1.734375 -1.828125 1.203125 -3.082031 1.203125 -4.6875 C 1.203125 -6.070312 1.535156 -7.242188 2.203125 -8.203125 C 2.867188 -9.160156 3.773438 -9.875 4.921875 -10.34375 C 6.066406 -10.8125 7.210938 -11.144531 8.359375 -11.34375 C 9.503906 -11.539062 10.734375 -11.640625 12.046875 -11.640625 L 12.046875 -14.234375 C 12.046875 -15.273438 11.816406 -16.003906 11.359375 -16.421875 C 10.910156 -16.835938 10.175781 -17.046875 9.15625 -17.046875 C 7.75 -17.046875 6.046875 -16.269531 4.046875 -14.71875 L 2.078125 -17.875 C 4.503906 -19.53125 7.195312 -20.359375 10.15625 -20.359375 C 12.289062 -20.359375 13.9375 -19.8125 15.09375 -18.71875 C 16.257812 -17.625 16.84375 -16.007812 16.84375 -13.875 L 16.84375 -5.203125 C 16.84375 -3.867188 17.160156 -3.203125 17.796875 -3.203125 C 18.015625 -3.203125 18.679688 -3.363281 19.796875 -3.6875 Z M 12.046875 -7.4375 L 12.046875 -8.359375 C 8.148438 -8.359375 6.203125 -7.289062 6.203125 -5.15625 C 6.203125 -4.570312 6.429688 -4.101562 6.890625 -3.75 C 7.359375 -3.40625 7.898438 -3.234375 8.515625 -3.234375 C 9.554688 -3.234375 10.40625 -3.664062 11.0625 -4.53125 C 11.71875 -5.40625 12.046875 -6.375 12.046875 -7.4375 Z M 12.046875 -7.4375 "/></g></g></g><g fill="#183172" fill-opacity="1"><g transform="translate(314.022712, 184.191024)"><g/></g></g><g fill="#168c46" fill-opacity="1"><g transform="translate(323.221934, 184.191024)"><g><path d="M 25.15625 0 L 19.234375 0 L 16.359375 -8.40625 L 7.71875 -8.40625 L 4.71875 0 L 0.078125 0 L 10.4375 -29.28125 L 14.796875 -29.28125 Z M 15.046875 -12.3125 C 13.765625 -16.238281 12.75 -19.570312 12 -22.3125 C 11.09375 -18.976562 10.117188 -15.644531 9.078125 -12.3125 Z M 15.046875 -12.3125 "/></g></g></g><g fill="#168c46" fill-opacity="1"><g transform="translate(348.459428, 184.191024)"><g><path d="M 7.40625 0 L 2.515625 0 L 2.515625 -28.59375 C 2.515625 -28.625 2.476562 -28.796875 2.40625 -29.109375 C 2.34375 -29.429688 2.269531 -29.78125 2.1875 -30.15625 C 2.113281 -30.53125 2.078125 -30.734375 2.078125 -30.765625 L 7.40625 -30.765625 Z M 7.40625 0 "/></g></g></g><g fill="#168c46" fill-opacity="1"><g transform="translate(129.70953, 211.563838)"><g><path d="M 7.171875 0 L 0.9375 0 L 0.9375 -9.390625 L 0.734375 -10.25 L 7.171875 -10.25 L 7.171875 -8.859375 L 2.859375 -8.859375 L 2.859375 -5.96875 L 6.15625 -5.96875 L 6.15625 -4.578125 L 2.859375 -4.578125 L 2.859375 -1.390625 L 7.171875 -1.390625 Z M 7.171875 0 "/></g></g></g><g fill="#168c46" fill-opacity="1"><g transform="translate(137.391239, 211.563838)"><g><path d="M 11 -0.015625 L 9.109375 -0.015625 L 9.109375 -6.953125 C 9.109375 -7.085938 9.132812 -7.425781 9.1875 -7.96875 C 9.15625 -7.894531 9.117188 -7.789062 9.078125 -7.65625 C 9.035156 -7.519531 8.992188 -7.394531 8.953125 -7.28125 C 8.921875 -7.164062 8.882812 -7.054688 8.84375 -6.953125 L 6.34375 0 L 5.3125 0 L 2.734375 -6.953125 C 2.691406 -7.054688 2.648438 -7.164062 2.609375 -7.28125 C 2.578125 -7.394531 2.539062 -7.519531 2.5 -7.65625 C 2.457031 -7.789062 2.421875 -7.894531 2.390625 -7.96875 C 2.390625 -7.882812 2.398438 -7.722656 2.421875 -7.484375 C 2.453125 -7.253906 2.46875 -7.078125 2.46875 -6.953125 L 2.46875 -0.015625 L 0.9375 -0.015625 L 0.9375 -9.390625 C 0.9375 -9.398438 0.921875 -9.46875 0.890625 -9.59375 C 0.859375 -9.726562 0.820312 -9.863281 0.78125 -10 C 0.75 -10.144531 0.734375 -10.226562 0.734375 -10.25 L 3.4375 -10.25 L 5.609375 -4.375 C 5.710938 -4.09375 5.847656 -3.523438 6.015625 -2.671875 C 6.035156 -2.734375 6.082031 -2.96875 6.15625 -3.375 C 6.238281 -3.78125 6.316406 -4.09375 6.390625 -4.3125 L 8.546875 -10.25 L 11 -10.25 Z M 11 -0.015625 "/></g></g></g><g fill="#168c46" fill-opacity="1"><g transform="translate(149.116694, 211.563838)"><g><path d="M 7.6875 -7.1875 C 7.6875 -6.175781 7.328125 -5.410156 6.609375 -4.890625 C 5.898438 -4.367188 5.023438 -4.109375 3.984375 -4.109375 L 2.84375 -4.109375 L 2.84375 0 L 0.921875 0 L 0.921875 -9.390625 C 0.921875 -9.410156 0.890625 -9.546875 0.828125 -9.796875 C 0.765625 -10.054688 0.726562 -10.207031 0.71875 -10.25 L 3.96875 -10.25 C 5.082031 -10.25 5.976562 -10.007812 6.65625 -9.53125 C 7.34375 -9.050781 7.6875 -8.269531 7.6875 -7.1875 Z M 5.640625 -7.1875 C 5.640625 -7.707031 5.503906 -8.113281 5.234375 -8.40625 C 4.960938 -8.707031 4.566406 -8.859375 4.046875 -8.859375 L 2.859375 -8.859375 L 2.859375 -5.46875 L 4.03125 -5.46875 C 4.53125 -5.46875 4.921875 -5.625 5.203125 -5.9375 C 5.492188 -6.25 5.640625 -6.664062 5.640625 -7.1875 Z M 5.640625 -7.1875 "/></g></g></g><g fill="#168c46" fill-opacity="1"><g transform="translate(157.162199, 211.563838)"><g><path d="M 10.046875 -5.109375 C 10.046875 -3.566406 9.601562 -2.300781 8.71875 -1.3125 C 7.832031 -0.332031 6.628906 0.15625 5.109375 0.15625 C 3.585938 0.15625 2.398438 -0.335938 1.546875 -1.328125 C 0.691406 -2.328125 0.265625 -3.597656 0.265625 -5.140625 C 0.265625 -6.691406 0.691406 -7.957031 1.546875 -8.9375 C 2.410156 -9.914062 3.601562 -10.40625 5.125 -10.40625 C 6.6875 -10.40625 7.894531 -9.914062 8.75 -8.9375 C 9.613281 -7.957031 10.046875 -6.679688 10.046875 -5.109375 Z M 7.984375 -5.046875 C 7.984375 -5.546875 7.9375 -6.015625 7.84375 -6.453125 C 7.75 -6.898438 7.597656 -7.328125 7.390625 -7.734375 C 7.179688 -8.140625 6.882812 -8.460938 6.5 -8.703125 C 6.113281 -8.953125 5.660156 -9.078125 5.140625 -9.078125 C 4.628906 -9.078125 4.179688 -8.960938 3.796875 -8.734375 C 3.410156 -8.503906 3.113281 -8.191406 2.90625 -7.796875 C 2.707031 -7.410156 2.5625 -7 2.46875 -6.5625 C 2.375 -6.132812 2.328125 -5.675781 2.328125 -5.1875 C 2.328125 -4.695312 2.375 -4.226562 2.46875 -3.78125 C 2.5625 -3.34375 2.707031 -2.921875 2.90625 -2.515625 C 3.113281 -2.109375 3.410156 -1.78125 3.796875 -1.53125 C 4.179688 -1.289062 4.640625 -1.171875 5.171875 -1.171875 C 5.679688 -1.171875 6.125 -1.285156 6.5 -1.515625 C 6.882812 -1.742188 7.179688 -2.050781 7.390625 -2.4375 C 7.597656 -2.832031 7.75 -3.242188 7.84375 -3.671875 C 7.9375 -4.109375 7.984375 -4.566406 7.984375 -5.046875 Z M 7.984375 -5.046875 "/></g></g></g><g fill="#168c46" fill-opacity="1"><g transform="translate(167.474447, 211.563838)"><g><path d="M 12.71875 -10.25 L 9.875 0.03125 L 8.140625 0.03125 C 8.035156 -0.320312 7.863281 -0.921875 7.625 -1.765625 C 7.382812 -2.609375 7.179688 -3.34375 7.015625 -3.96875 C 6.847656 -4.601562 6.691406 -5.210938 6.546875 -5.796875 C 6.421875 -6.359375 6.328125 -6.878906 6.265625 -7.359375 C 6.148438 -6.535156 5.992188 -5.765625 5.796875 -5.046875 L 4.40625 0.03125 L 2.625 0.03125 L -0.203125 -10.25 L 1.734375 -10.25 C 2.710938 -6.695312 3.253906 -4.722656 3.359375 -4.328125 C 3.484375 -3.816406 3.59375 -3.222656 3.6875 -2.546875 C 3.769531 -3.148438 3.929688 -3.914062 4.171875 -4.84375 L 5.640625 -10.25 L 7.265625 -10.25 C 7.378906 -9.832031 7.550781 -9.210938 7.78125 -8.390625 C 8.019531 -7.566406 8.226562 -6.828125 8.40625 -6.171875 C 8.59375 -5.515625 8.757812 -4.890625 8.90625 -4.296875 C 9.019531 -3.835938 9.117188 -3.253906 9.203125 -2.546875 C 9.304688 -3.347656 9.460938 -4.113281 9.671875 -4.84375 L 11.15625 -10.25 Z M 12.71875 -10.25 "/></g></g></g><g fill="#168c46" fill-opacity="1"><g transform="translate(179.983468, 211.563838)"><g><path d="M 7.171875 0 L 0.9375 0 L 0.9375 -9.390625 L 0.734375 -10.25 L 7.171875 -10.25 L 7.171875 -8.859375 L 2.859375 -8.859375 L 2.859375 -5.96875 L 6.15625 -5.96875 L 6.15625 -4.578125 L 2.859375 -4.578125 L 2.859375 -1.390625 L 7.171875 -1.390625 Z M 7.171875 0 "/></g></g></g><g fill="#168c46" fill-opacity="1"><g transform="translate(187.665176, 211.563838)"><g><path d="M 8.640625 0 L 6.453125 0 L 3.609375 -4.5625 L 2.84375 -4.5625 L 2.84375 0 L 0.921875 0 L 0.921875 -9.390625 C 0.921875 -9.410156 0.890625 -9.546875 0.828125 -9.796875 C 0.765625 -10.054688 0.726562 -10.207031 0.71875 -10.25 L 4.234375 -10.25 C 5.265625 -10.25 6.097656 -10.03125 6.734375 -9.59375 C 7.367188 -9.15625 7.6875 -8.441406 7.6875 -7.453125 C 7.6875 -6.867188 7.46875 -6.320312 7.03125 -5.8125 C 6.59375 -5.3125 6.082031 -4.992188 5.5 -4.859375 Z M 5.65625 -7.46875 C 5.65625 -7.90625 5.5 -8.242188 5.1875 -8.484375 C 4.882812 -8.722656 4.503906 -8.84375 4.046875 -8.84375 L 2.84375 -8.84375 L 2.84375 -5.9375 L 3.734375 -5.9375 C 5.015625 -5.9375 5.65625 -6.445312 5.65625 -7.46875 Z M 5.65625 -7.46875 "/></g></g></g><g fill="#168c46" fill-opacity="1"><g transform="translate(195.934562, 211.563838)"><g><path d="M 2.859375 0 L 0.921875 0 L 0.921875 -9.390625 C 0.921875 -9.398438 0.90625 -9.46875 0.875 -9.59375 C 0.84375 -9.726562 0.8125 -9.863281 0.78125 -10 C 0.75 -10.144531 0.734375 -10.226562 0.734375 -10.25 L 2.859375 -10.25 Z M 2.859375 0 "/></g></g></g><g fill="#168c46" fill-opacity="1"><g transform="translate(199.68447, 211.563838)"><g><path d="M 9.09375 0.0625 L 7.59375 0.0625 L 2.984375 -6.953125 C 2.660156 -7.453125 2.460938 -7.765625 2.390625 -7.890625 C 2.453125 -7.273438 2.484375 -6.960938 2.484375 -6.953125 L 2.484375 0 L 0.921875 0 L 0.921875 -9.375 C 0.921875 -9.382812 0.90625 -9.453125 0.875 -9.578125 C 0.84375 -9.710938 0.8125 -9.847656 0.78125 -9.984375 C 0.75 -10.128906 0.734375 -10.210938 0.734375 -10.234375 L 3.03125 -10.234375 L 7.0625 -4.109375 C 7.195312 -3.898438 7.382812 -3.585938 7.625 -3.171875 C 7.570312 -3.878906 7.546875 -4.238281 7.546875 -4.25 L 7.546875 -10.234375 L 9.09375 -10.234375 Z M 9.09375 0.0625 "/></g></g></g><g fill="#168c46" fill-opacity="1"><g transform="translate(209.674899, 211.563838)"><g><path d="M 9.359375 0.015625 L 8.359375 0.015625 L 7.875 -1.046875 C 7.414062 -0.617188 6.953125 -0.3125 6.484375 -0.125 C 6.015625 0.0625 5.460938 0.15625 4.828125 0.15625 C 3.367188 0.15625 2.25 -0.328125 1.46875 -1.296875 C 0.6875 -2.273438 0.296875 -3.519531 0.296875 -5.03125 C 0.296875 -6.65625 0.75 -7.957031 1.65625 -8.9375 C 2.5625 -9.925781 3.816406 -10.421875 5.421875 -10.421875 C 6.054688 -10.421875 6.71875 -10.328125 7.40625 -10.140625 C 8.09375 -9.953125 8.628906 -9.675781 9.015625 -9.3125 L 8 -8.15625 C 7.5 -8.519531 7.082031 -8.765625 6.75 -8.890625 C 6.425781 -9.023438 5.984375 -9.09375 5.421875 -9.09375 C 4.679688 -9.09375 4.070312 -8.898438 3.59375 -8.515625 C 3.113281 -8.128906 2.78125 -7.65625 2.59375 -7.09375 C 2.414062 -6.53125 2.328125 -5.882812 2.328125 -5.15625 C 2.328125 -4.695312 2.378906 -4.242188 2.484375 -3.796875 C 2.585938 -3.359375 2.742188 -2.9375 2.953125 -2.53125 C 3.171875 -2.132812 3.46875 -1.8125 3.84375 -1.5625 C 4.226562 -1.3125 4.664062 -1.1875 5.15625 -1.1875 C 5.8125 -1.1875 6.34375 -1.378906 6.75 -1.765625 C 7.15625 -2.160156 7.359375 -2.691406 7.359375 -3.359375 L 7.359375 -4.234375 L 5.234375 -4.234375 L 5.421875 -5.453125 L 9.3125 -5.453125 C 9.289062 -4.316406 9.28125 -3.460938 9.28125 -2.890625 C 9.28125 -1.753906 9.304688 -0.785156 9.359375 0.015625 Z M 9.359375 0.015625 "/></g></g></g><g fill="#168c46" fill-opacity="1"><g transform="translate(219.567377, 211.563838)"><g/></g></g><g fill="#168c46" fill-opacity="1"><g transform="translate(222.785581, 211.563838)"><g><path d="M 9.09375 0 L 7.171875 0 L 7.171875 -4.578125 L 2.875 -4.578125 L 2.875 0 L 0.9375 0 L 0.9375 -9.390625 C 0.9375 -9.398438 0.921875 -9.46875 0.890625 -9.59375 C 0.859375 -9.726562 0.820312 -9.863281 0.78125 -10 C 0.75 -10.144531 0.734375 -10.226562 0.734375 -10.25 L 2.875 -10.25 L 2.875 -5.96875 L 7.171875 -5.96875 L 7.171875 -10.25 L 9.09375 -10.25 Z M 9.09375 0 "/></g></g></g><g fill="#168c46" fill-opacity="1"><g transform="translate(232.776009, 211.563838)"><g><path d="M 7.171875 0 L 0.9375 0 L 0.9375 -9.390625 L 0.734375 -10.25 L 7.171875 -10.25 L 7.171875 -8.859375 L 2.859375 -8.859375 L 2.859375 -5.96875 L 6.15625 -5.96875 L 6.15625 -4.578125 L 2.859375 -4.578125 L 2.859375 -1.390625 L 7.171875 -1.390625 Z M 7.171875 0 "/></g></g></g><g fill="#168c46" fill-opacity="1"><g transform="translate(240.457718, 211.563838)"><g><path d="M 8.8125 0 L 6.734375 0 L 5.71875 -2.9375 L 2.703125 -2.9375 L 1.65625 0 L 0.03125 0 L 3.65625 -10.25 L 5.1875 -10.25 Z M 5.265625 -4.3125 C 4.816406 -5.6875 4.460938 -6.851562 4.203125 -7.8125 C 3.878906 -6.644531 3.535156 -5.476562 3.171875 -4.3125 Z M 5.265625 -4.3125 "/></g></g></g><g fill="#168c46" fill-opacity="1"><g transform="translate(249.286789, 211.563838)"><g><path d="M 6.890625 0 L 0.921875 0 L 0.921875 -9.390625 C 0.921875 -9.398438 0.90625 -9.46875 0.875 -9.59375 C 0.851562 -9.726562 0.820312 -9.863281 0.78125 -10 C 0.75 -10.144531 0.734375 -10.226562 0.734375 -10.25 L 2.875 -10.25 L 2.875 -1.390625 L 6.890625 -1.390625 Z M 6.890625 0 "/></g></g></g><g fill="#168c46" fill-opacity="1"><g transform="translate(256.47877, 211.563838)"><g><path d="M 7.90625 -8.859375 L 5.03125 -8.859375 L 5.03125 0 L 3.03125 0 L 3.03125 -8.859375 L 0.1875 -8.859375 L 0.1875 -10.25 L 7.90625 -10.25 Z M 7.90625 -8.859375 "/></g></g></g><g fill="#168c46" fill-opacity="1"><g transform="translate(264.566252, 211.563838)"><g><path d="M 9.09375 0 L 7.171875 0 L 7.171875 -4.578125 L 2.875 -4.578125 L 2.875 0 L 0.9375 0 L 0.9375 -9.390625 C 0.9375 -9.398438 0.921875 -9.46875 0.890625 -9.59375 C 0.859375 -9.726562 0.820312 -9.863281 0.78125 -10 C 0.75 -10.144531 0.734375 -10.226562 0.734375 -10.25 L 2.875 -10.25 L 2.875 -5.96875 L 7.171875 -5.96875 L 7.171875 -10.25 L 9.09375 -10.25 Z M 9.09375 0 "/></g></g></g><g fill="#168c46" fill-opacity="1"><g transform="translate(274.556681, 211.563838)"><g><path d="M 8.5625 -0.875 C 7.976562 -0.507812 7.429688 -0.242188 6.921875 -0.078125 C 6.410156 0.0859375 5.832031 0.171875 5.1875 0.171875 C 3.601562 0.171875 2.390625 -0.320312 1.546875 -1.3125 C 0.703125 -2.300781 0.28125 -3.59375 0.28125 -5.1875 C 0.28125 -6.707031 0.722656 -7.960938 1.609375 -8.953125 C 2.492188 -9.941406 3.6875 -10.4375 5.1875 -10.4375 C 5.769531 -10.4375 6.378906 -10.351562 7.015625 -10.1875 C 7.648438 -10.019531 8.148438 -9.773438 8.515625 -9.453125 L 7.5 -8.15625 C 7.25 -8.4375 6.910156 -8.660156 6.484375 -8.828125 C 6.066406 -9.003906 5.660156 -9.09375 5.265625 -9.09375 C 4.578125 -9.09375 4.003906 -8.894531 3.546875 -8.5 C 3.097656 -8.101562 2.785156 -7.628906 2.609375 -7.078125 C 2.441406 -6.535156 2.359375 -5.921875 2.359375 -5.234375 C 2.359375 -4.785156 2.414062 -4.328125 2.53125 -3.859375 C 2.65625 -3.398438 2.828125 -2.960938 3.046875 -2.546875 C 3.273438 -2.140625 3.582031 -1.800781 3.96875 -1.53125 C 4.363281 -1.269531 4.804688 -1.140625 5.296875 -1.140625 C 6.160156 -1.140625 6.957031 -1.492188 7.6875 -2.203125 Z M 8.5625 -0.875 "/></g></g></g><g fill="#168c46" fill-opacity="1"><g transform="translate(283.287813, 211.563838)"><g><path d="M 8.8125 0 L 6.734375 0 L 5.71875 -2.9375 L 2.703125 -2.9375 L 1.65625 0 L 0.03125 0 L 3.65625 -10.25 L 5.1875 -10.25 Z M 5.265625 -4.3125 C 4.816406 -5.6875 4.460938 -6.851562 4.203125 -7.8125 C 3.878906 -6.644531 3.535156 -5.476562 3.171875 -4.3125 Z M 5.265625 -4.3125 "/></g></g></g><g fill="#168c46" fill-opacity="1"><g transform="translate(292.116883, 211.563838)"><g><path d="M 8.640625 0 L 6.453125 0 L 3.609375 -4.5625 L 2.84375 -4.5625 L 2.84375 0 L 0.921875 0 L 0.921875 -9.390625 C 0.921875 -9.410156 0.890625 -9.546875 0.828125 -9.796875 C 0.765625 -10.054688 0.726562 -10.207031 0.71875 -10.25 L 4.234375 -10.25 C 5.265625 -10.25 6.097656 -10.03125 6.734375 -9.59375 C 7.367188 -9.15625 7.6875 -8.441406 7.6875 -7.453125 C 7.6875 -6.867188 7.46875 -6.320312 7.03125 -5.8125 C 6.59375 -5.3125 6.082031 -4.992188 5.5 -4.859375 Z M 5.65625 -7.46875 C 5.65625 -7.90625 5.5 -8.242188 5.1875 -8.484375 C 4.882812 -8.722656 4.503906 -8.84375 4.046875 -8.84375 L 2.84375 -8.84375 L 2.84375 -5.9375 L 3.734375 -5.9375 C 5.015625 -5.9375 5.65625 -6.445312 5.65625 -7.46875 Z M 5.65625 -7.46875 "/></g></g></g><g fill="#168c46" fill-opacity="1"><g transform="translate(300.386269, 211.563838)"><g><path d="M 7.171875 0 L 0.9375 0 L 0.9375 -9.390625 L 0.734375 -10.25 L 7.171875 -10.25 L 7.171875 -8.859375 L 2.859375 -8.859375 L 2.859375 -5.96875 L 6.15625 -5.96875 L 6.15625 -4.578125 L 2.859375 -4.578125 L 2.859375 -1.390625 L 7.171875 -1.390625 Z M 7.171875 0 "/></g></g></g><g fill="#168c46" fill-opacity="1"><g transform="translate(308.067978, 211.563838)"><g/></g></g><g fill="#168c46" fill-opacity="1"><g transform="translate(311.286182, 211.563838)"><g><path d="M 12.71875 -10.25 L 9.875 0.03125 L 8.140625 0.03125 C 8.035156 -0.320312 7.863281 -0.921875 7.625 -1.765625 C 7.382812 -2.609375 7.179688 -3.34375 7.015625 -3.96875 C 6.847656 -4.601562 6.691406 -5.210938 6.546875 -5.796875 C 6.421875 -6.359375 6.328125 -6.878906 6.265625 -7.359375 C 6.148438 -6.535156 5.992188 -5.765625 5.796875 -5.046875 L 4.40625 0.03125 L 2.625 0.03125 L -0.203125 -10.25 L 1.734375 -10.25 C 2.710938 -6.695312 3.253906 -4.722656 3.359375 -4.328125 C 3.484375 -3.816406 3.59375 -3.222656 3.6875 -2.546875 C 3.769531 -3.148438 3.929688 -3.914062 4.171875 -4.84375 L 5.640625 -10.25 L 7.265625 -10.25 C 7.378906 -9.832031 7.550781 -9.210938 7.78125 -8.390625 C 8.019531 -7.566406 8.226562 -6.828125 8.40625 -6.171875 C 8.59375 -5.515625 8.757812 -4.890625 8.90625 -4.296875 C 9.019531 -3.835938 9.117188 -3.253906 9.203125 -2.546875 C 9.304688 -3.347656 9.460938 -4.113281 9.671875 -4.84375 L 11.15625 -10.25 Z M 12.71875 -10.25 "/></g></g></g><g fill="#168c46" fill-opacity="1"><g transform="translate(323.795203, 211.563838)"><g><path d="M 2.859375 0 L 0.921875 0 L 0.921875 -9.390625 C 0.921875 -9.398438 0.90625 -9.46875 0.875 -9.59375 C 0.84375 -9.726562 0.8125 -9.863281 0.78125 -10 C 0.75 -10.144531 0.734375 -10.226562 0.734375 -10.25 L 2.859375 -10.25 Z M 2.859375 0 "/></g></g></g><g fill="#168c46" fill-opacity="1"><g transform="translate(327.545111, 211.563838)"><g><path d="M 7.90625 -8.859375 L 5.03125 -8.859375 L 5.03125 0 L 3.03125 0 L 3.03125 -8.859375 L 0.1875 -8.859375 L 0.1875 -10.25 L 7.90625 -10.25 Z M 7.90625 -8.859375 "/></g></g></g><g fill="#168c46" fill-opacity="1"><g transform="translate(335.632581, 211.563838)"><g><path d="M 9.09375 0 L 7.171875 0 L 7.171875 -4.578125 L 2.875 -4.578125 L 2.875 0 L 0.9375 0 L 0.9375 -9.390625 C 0.9375 -9.398438 0.921875 -9.46875 0.890625 -9.59375 C 0.859375 -9.726562 0.820312 -9.863281 0.78125 -10 C 0.75 -10.144531 0.734375 -10.226562 0.734375 -10.25 L 2.875 -10.25 L 2.875 -5.96875 L 7.171875 -5.96875 L 7.171875 -10.25 L 9.09375 -10.25 Z M 9.09375 0 "/></g></g></g><g fill="#168c46" fill-opacity="1"><g transform="translate(345.622998, 211.563838)"><g/></g></g><g fill="#168c46" fill-opacity="1"><g transform="translate(348.841214, 211.563838)"><g><path d="M 8.8125 0 L 6.734375 0 L 5.71875 -2.9375 L 2.703125 -2.9375 L 1.65625 0 L 0.03125 0 L 3.65625 -10.25 L 5.1875 -10.25 Z M 5.265625 -4.3125 C 4.816406 -5.6875 4.460938 -6.851562 4.203125 -7.8125 C 3.878906 -6.644531 3.535156 -5.476562 3.171875 -4.3125 Z M 5.265625 -4.3125 "/></g></g></g><g fill="#168c46" fill-opacity="1"><g transform="translate(357.670284, 211.563838)"><g><path d="M 2.859375 0 L 0.921875 0 L 0.921875 -9.390625 C 0.921875 -9.398438 0.90625 -9.46875 0.875 -9.59375 C 0.84375 -9.726562 0.8125 -9.863281 0.78125 -10 C 0.75 -10.144531 0.734375 -10.226562 0.734375 -10.25 L 2.859375 -10.25 Z M 2.859375 0 "/></g></g></g></svg>